<svg xmlns="http://www.w3.org/2000/svg" xmlns:xlink="http://www.w3.org/1999/xlink" viewBox="0 0 17.42 20"><defs><style>.cls-1{fill:none;}.cls-2{clip-path:url(#clip-path);}.cls-3{fill:#d3d7de;}</style><clipPath id="clip-path" transform="translate(-3.29 -2)"><rect class="cls-1" width="24" height="24"/></clipPath></defs><title>Ресурс 3</title><g id="Слой_2" data-name="Слой 2"><g id="Слой_1-2" data-name="Слой 1"><g class="cls-2"><g class="cls-2"><path class="cls-3" d="M14.35,2H9.65A1.89,1.89,0,0,0,7.76,3.88v.94A1.89,1.89,0,0,0,9.65,6.71h4.7a1.89,1.89,0,0,0,1.89-1.89V3.88A1.89,1.89,0,0,0,14.35,2" transform="translate(-3.29 -2)"/><path class="cls-3" d="M17.24,4.82h0a2.9,2.9,0,0,1-2.89,2.89H9.65A2.9,2.9,0,0,1,6.76,4.82a.75.75,0,0,0-1.1-.65A4.5,4.5,0,0,0,3.29,8.12v9.41A4.48,4.48,0,0,0,7.76,22h8.48a4.48,4.48,0,0,0,4.47-4.47V8.12a4.5,4.5,0,0,0-2.37-3.95.75.75,0,0,0-1.1.65M12.38,17H8a.75.75,0,0,1,0-1.5h4.38a.75.75,0,0,1,0,1.5M15,13H8a.75.75,0,0,1,0-1.5h7A.75.75,0,0,1,15,13" transform="translate(-3.29 -2)"/></g></g></g></g></svg>