<svg xmlns="http://www.w3.org/2000/svg" xmlns:xlink="http://www.w3.org/1999/xlink" viewBox="0 0 20 19.13"><defs><style>.cls-1{fill:none;}.cls-2{clip-path:url(#clip-path);}.cls-3{opacity:0;}.cls-4{fill:#fff;}</style><clipPath id="clip-path" transform="translate(-2 -2.43)"><rect class="cls-1" width="24" height="24"/></clipPath></defs><title>Ресурс 3</title><g id="Слой_2" data-name="Слой 2"><g id="Слой_1-2" data-name="Слой 1"><g class="cls-2"><g class="cls-2"><g class="cls-2"><path class="cls-4" d="M17,2.43H7a4.72,4.72,0,0,0-5,5v6a4.72,4.72,0,0,0,5,5h4l4.44,3A1,1,0,0,0,17,20.56V18.43a4.72,4.72,0,0,0,5-5v-6a4.72,4.72,0,0,0-5-5m-1.5,8.82h-7a.75.75,0,0,1,0-1.5h7a.75.75,0,0,1,0,1.5" transform="translate(-2 -2.43)"/></g></g></g></g></g></svg>