<svg xmlns="http://www.w3.org/2000/svg" xmlns:xlink="http://www.w3.org/1999/xlink" viewBox="0 0 24 24"><defs><style>.cls-1{fill:none;}.cls-2{clip-path:url(#clip-path);}.cls-3{fill:#36f540;}</style><clipPath id="clip-path"><rect class="cls-1" width="24" height="24"/></clipPath></defs><title>Ресурс 1</title><g id="Слой_2" data-name="Слой 2"><g id="Слой_1-2" data-name="Слой 1"><g id="Слой_1-2-2" data-name="Слой 1-2"><rect class="cls-1" width="24" height="24"/><g class="cls-2"><path class="cls-3" d="M15.5,22.75h-7c-3.71,0-5.75-2-5.75-5.75V7c0-3.65,2.1-5.75,5.75-5.75h7c3.65,0,5.75,2.1,5.75,5.75V8A1.76,1.76,0,0,1,19.5,9.75a.25.25,0,0,0-.25.25v2.17a1.24,1.24,0,0,0,.37.89l.82.82a2.74,2.74,0,0,1,.81,1.95V17C21.25,20.65,19.15,22.75,15.5,22.75Zm-7-20C5.64,2.75,4.25,4.14,4.25,7V17c0,2.86,1.39,4.25,4.25,4.25h7c2.82,0,4.25-1.43,4.25-4.25V15.83a1.24,1.24,0,0,0-.37-.89l-.82-.82a2.78,2.78,0,0,1-.81-1.95V10A1.76,1.76,0,0,1,19.5,8.25.25.25,0,0,0,19.75,8V7c0-2.82-1.43-4.25-4.25-4.25Z"/><path class="cls-3" d="M16,22.75a.76.76,0,0,1-.75-.75V19A1.25,1.25,0,0,0,14,17.75H10A1.25,1.25,0,0,0,8.75,19v3a.75.75,0,0,1-1.5,0V19A2.75,2.75,0,0,1,10,16.25h4A2.75,2.75,0,0,1,16.75,19v3A.76.76,0,0,1,16,22.75Z"/><path class="cls-3" d="M8.94,5.7h0a.75.75,0,0,1-.74-.76l.05-2.89A.75.75,0,0,1,9,1.31H9a.75.75,0,0,1,.74.76L9.69,5A.75.75,0,0,1,8.94,5.7Z"/><path class="cls-3" d="M11.94,5.7h0a.75.75,0,0,1-.74-.76l.05-2.89A.79.79,0,0,1,12,1.31a.75.75,0,0,1,.74.76L12.69,5A.75.75,0,0,1,11.94,5.7Z"/><path class="cls-3" d="M14.94,5.67h0a.75.75,0,0,1-.74-.76L14.24,2A.75.75,0,0,1,15,1.29h0a.75.75,0,0,1,.74.76l-.05,2.88A.75.75,0,0,1,14.94,5.67Z"/></g></g></g></g></svg>