<svg xmlns="http://www.w3.org/2000/svg" xmlns:xlink="http://www.w3.org/1999/xlink" viewBox="0 0 21.49 20.5"><defs><style>.cls-1{fill:none;}.cls-2{clip-path:url(#clip-path);}.cls-3{fill:#d3d7de;}</style><clipPath id="clip-path" transform="translate(-1.24 -1.75)"><rect class="cls-1" width="24" height="24"/></clipPath></defs><title>Ресурс 7</title><g id="Слой_2" data-name="Слой 2"><g id="Слой_1-2" data-name="Слой 1"><g class="cls-2"><g class="cls-2"><path class="cls-3" d="M15.81,20.18c-.27,0-.54,0-.82,0a12.12,12.12,0,0,1-1.72-.29l-1.68-.4c-4.61-1.1-6.12-3.53-5-8.13l1-4.19a11.76,11.76,0,0,1,.8-2.36c1.72-3.55,5-3.23,7.35-2.68l1.66.39C19.69,3,21.17,3.9,22,5.23s.94,3,.39,5.38l-1,4.18c-.85,3.66-2.64,5.39-5.6,5.39M13.12,3.25A3.45,3.45,0,0,0,9.68,5.43a9.84,9.84,0,0,0-.69,2L8,11.66c-.88,3.78.15,5.43,3.93,6.33l1.68.4a10.41,10.41,0,0,0,1.5.25c2.72.27,4.07-.91,4.83-4.19l1-4.18c.46-1.93.39-3.28-.21-4.25S18.94,4.39,17,3.94l-1.67-.39a9.59,9.59,0,0,0-2.21-.3" transform="translate(-1.24 -1.75)"/><path class="cls-3" d="M8.33,22.25c-2.56,0-4.2-1.53-5.26-4.79l-1.28-4C.37,9.11,1.64,6.63,6,5.22L7.6,4.7a10.74,10.74,0,0,1,1.26-.34.76.76,0,0,1,.82,1.07,9.84,9.84,0,0,0-.69,2L8,11.66c-.88,3.78.15,5.43,3.93,6.33l1.68.4a9.18,9.18,0,0,0,1.5.25A.75.75,0,0,1,15.49,20,9.89,9.89,0,0,1,13,21.18l-1.58.52a9.91,9.91,0,0,1-3,.55m-.55-16-1.29.42C2.92,7.79,2.06,9.47,3.22,13.05L4.5,17c1.16,3.57,2.84,4.43,6.4,3.28l1.58-.52.17-.06-1.06-.25c-4.61-1.09-6.12-3.53-5-8.13l1-4.19c.08-.32.16-.63.25-.91" transform="translate(-1.24 -1.75)"/><path class="cls-3" d="M17.49,10.51l-.19,0L12.46,9.25a.74.74,0,0,1-.54-.91.75.75,0,0,1,.91-.54L17.67,9a.75.75,0,0,1,.55.92.77.77,0,0,1-.73.56" transform="translate(-1.24 -1.75)"/><path class="cls-3" d="M14.56,13.89l-.18,0-2.91-.74a.75.75,0,0,1-.54-.91.74.74,0,0,1,.91-.54l2.91.74a.75.75,0,0,1-.19,1.47" transform="translate(-1.24 -1.75)"/></g></g></g></g></svg>