<svg xmlns="http://www.w3.org/2000/svg" xmlns:xlink="http://www.w3.org/1999/xlink" viewBox="0 0 19.5 21.5"><defs><style>.cls-1,.cls-3{fill:none;}.cls-2{clip-path:url(#clip-path);}.cls-3{stroke:#ee4941;stroke-linecap:round;stroke-linejoin:round;stroke-width:1.5px;}</style><clipPath id="clip-path" transform="translate(-2.25 -1.25)"><rect class="cls-1" width="24" height="24"/></clipPath></defs><title>Ресурс 4</title><g id="Слой_2" data-name="Слой 2"><g id="Слой_1-2" data-name="Слой 1"><g class="cls-2"><g class="cls-2"><path class="cls-3" d="M21,6c-3.33-.33-6.68-.5-10-.5A59.07,59.07,0,0,0,5,5.78L3,6" transform="translate(-2.25 -1.25)"/><path class="cls-3" d="M8.5,5l.22-1.31C8.88,2.71,9,2,10.69,2h2.62c1.69,0,1.82.75,2,1.67L15.5,5" transform="translate(-2.25 -1.25)"/><path class="cls-3" d="M18.85,9.14,18.2,19.21c-.11,1.57-.2,2.79-3,2.79H8.79c-2.79,0-2.88-1.22-3-2.79L5.15,9.14" transform="translate(-2.25 -1.25)"/><line class="cls-3" x1="8.08" y1="15.25" x2="11.41" y2="15.25"/><line class="cls-3" x1="7.25" y1="11.25" x2="12.25" y2="11.25"/></g></g></g></g></svg>