<svg xmlns="http://www.w3.org/2000/svg" xmlns:xlink="http://www.w3.org/1999/xlink" viewBox="0 0 21.5 21.5"><defs><style>.cls-1{fill:none;}.cls-2{clip-path:url(#clip-path);}.cls-3{fill:#d3d7de;}</style><clipPath id="clip-path" transform="translate(-1.25 -1.25)"><rect class="cls-1" width="24" height="24"/></clipPath></defs><title>Ресурс 5</title><g id="Слой_2" data-name="Слой 2"><g id="Слой_1-2" data-name="Слой 1"><g class="cls-2"><g class="cls-2"><path class="cls-3" d="M3.93,16.63a.74.74,0,0,1-.53-.22.75.75,0,0,1,0-1.06l12-11.95a.77.77,0,0,1,1.07,0,.75.75,0,0,1,0,1.06l-12,12a.73.73,0,0,1-.53.22" transform="translate(-1.25 -1.25)"/><path class="cls-3" d="M11.1,19a.79.79,0,0,1-.53-.22.75.75,0,0,1,0-1.06l1.2-1.2a.75.75,0,1,1,1.06,1.06l-1.2,1.2a.75.75,0,0,1-.53.22" transform="translate(-1.25 -1.25)"/><path class="cls-3" d="M13.79,16.34a.79.79,0,0,1-.53-.22.75.75,0,0,1,0-1.06l2.39-2.4a.75.75,0,0,1,1.06,1.07l-2.39,2.39a.77.77,0,0,1-.53.22" transform="translate(-1.25 -1.25)"/><path class="cls-3" d="M11.1,22.75c-1,0-2-.6-3.15-1.79L3,16.05c-2.39-2.39-2.38-3.93,0-6.34L9.71,3.07C12.12.66,13.66.65,16.05,3L21,8c2.39,2.39,2.38,3.93,0,6.34l-6.64,6.64c-1.21,1.21-2.2,1.82-3.19,1.82m1.8-20h0c-.51,0-1.17.43-2.12,1.38L4.13,10.77c-.95,1-1.38,1.61-1.38,2.13S3.15,14,4.1,15L9,19.9c.94,1,1.57,1.35,2.09,1.35h0c.51,0,1.17-.43,2.12-1.38l6.64-6.64c.95-1,1.38-1.61,1.38-2.13S20.85,10,19.9,9L15,4.1c-.94-.95-1.57-1.35-2.09-1.35" transform="translate(-1.25 -1.25)"/><path class="cls-3" d="M22,22.75H2a.75.75,0,0,1,0-1.5H22a.75.75,0,0,1,0,1.5" transform="translate(-1.25 -1.25)"/></g></g></g></g></svg>