<svg xmlns="http://www.w3.org/2000/svg" xmlns:xlink="http://www.w3.org/1999/xlink" viewBox="0 0 17 17"><defs><style>.cls-1{fill:none;}.cls-2{clip-path:url(#clip-path);}.cls-3{fill:#d3d7de;}</style><clipPath id="clip-path" transform="translate(-3.5 -3.5)"><rect class="cls-1" width="24" height="24"/></clipPath></defs><title>Ресурс 2</title><g id="Слой_2" data-name="Слой 2"><g id="Слой_1-2" data-name="Слой 1"><g class="cls-2"><g class="cls-2"><path class="cls-3" d="M19,5c-2-2-3.84-2-5.83,0L12,6.19a.42.42,0,0,0-.1.4,8.13,8.13,0,0,0,5.53,5.53l.12,0a.43.43,0,0,0,.29-.12L19,10.8A4.17,4.17,0,0,0,20.5,7.91,4.19,4.19,0,0,0,19,5" transform="translate(-3.5 -3.5)"/><path class="cls-3" d="M15.61,13c-.29-.14-.57-.29-.84-.44s-.43-.27-.64-.43a6,6,0,0,1-.56-.43.76.76,0,0,1-.17-.15,7.84,7.84,0,0,1-1-1,.74.74,0,0,1-.14-.17c-.11-.13-.27-.33-.42-.55s-.26-.38-.39-.59-.3-.55-.43-.83-.25-.58-.35-.86L4.35,13.83a1,1,0,0,0-.28.55l-.54,3.83A2,2,0,0,0,4,20a2,2,0,0,0,1.39.54l.36,0,3.83-.54a1,1,0,0,0,.55-.28l6.29-6.28c-.28-.1-.55-.21-.85-.34" transform="translate(-3.5 -3.5)"/></g></g></g></g></svg>