<svg xmlns="http://www.w3.org/2000/svg" xmlns:xlink="http://www.w3.org/1999/xlink" viewBox="0 0 21.5 21.48"><defs><style>.cls-1{fill:none;}.cls-2{clip-path:url(#clip-path);}.cls-3{fill:#d3d7de;}</style><clipPath id="clip-path" transform="translate(-1.25 -1.26)"><rect class="cls-1" width="24" height="24"/></clipPath></defs><title>Ресурс 3</title><g id="Слой_2" data-name="Слой 2"><g id="Слой_1-2" data-name="Слой 1"><g class="cls-2"><g class="cls-2"><path class="cls-3" d="M17.79,22.74H6.21a5,5,0,0,1-5-5V10.36A5.52,5.52,0,0,1,3.17,6.44l5.39-4.2h0a5.22,5.22,0,0,1,5.89-.14l6.18,4.33a5.48,5.48,0,0,1,2.12,4.07v7.28a5,5,0,0,1-5,5M9.48,3.43,4.09,7.63a4,4,0,0,0-1.34,2.73v7.41a3.47,3.47,0,0,0,3.46,3.47H17.79a3.47,3.47,0,0,0,3.46-3.46V10.5a4,4,0,0,0-1.48-2.84L13.59,3.33a3.74,3.74,0,0,0-4.11.1" transform="translate(-1.25 -1.26)"/><path class="cls-3" d="M12,18.74a.76.76,0,0,1-.75-.75V15a.75.75,0,0,1,1.5,0v3a.76.76,0,0,1-.75.75" transform="translate(-1.25 -1.26)"/></g></g></g></g></svg>