<svg xmlns="http://www.w3.org/2000/svg" xmlns:xlink="http://www.w3.org/1999/xlink" viewBox="0 0 17.54 21.63"><defs><style>.cls-1,.cls-3,.cls-4,.cls-5{fill:none;}.cls-2{clip-path:url(#clip-path);}.cls-3,.cls-4,.cls-5{stroke:#d3d7de;stroke-width:1.5px;}.cls-3,.cls-4{stroke-linecap:round;}.cls-3,.cls-5{stroke-miterlimit:10;}.cls-4{stroke-linejoin:round;}</style><clipPath id="clip-path" transform="translate(-3.23 -1.18)"><rect class="cls-1" width="24" height="24"/></clipPath></defs><title>Ресурс 2</title><g id="Слой_2" data-name="Слой 2"><g id="Слой_1-2" data-name="Слой 1"><g class="cls-2"><g class="cls-2"><path class="cls-3" d="M12,2.92a6,6,0,0,0-6,6v2.89a4.78,4.78,0,0,1-.57,2.06L4.3,15.78a1.92,1.92,0,0,0,1.08,2.93,20.92,20.92,0,0,0,13.27,0,2,2,0,0,0,1.08-2.93l-1.15-1.91A4.91,4.91,0,0,1,18,11.81V8.92A6,6,0,0,0,12,2.92Z" transform="translate(-3.23 -1.18)"/><path class="cls-4" d="M13.87,3.19a6.05,6.05,0,0,0-1-.2,6.75,6.75,0,0,0-2.74.2,2,2,0,0,1,3.7,0Z" transform="translate(-3.23 -1.18)"/><path class="cls-5" d="M15,19.06a3,3,0,0,1-6,0" transform="translate(-3.23 -1.18)"/></g></g></g></g></svg>