<svg xmlns="http://www.w3.org/2000/svg" xmlns:xlink="http://www.w3.org/1999/xlink" viewBox="0 0 19.26 19.27"><defs><style>.cls-1{fill:none;}.cls-2{clip-path:url(#clip-path);}.cls-3{fill:#d3d7de;}</style><clipPath id="clip-path" transform="translate(-2.37 -2.37)"><rect class="cls-1" width="24" height="24"/></clipPath></defs><title>Ресурс 6</title><g id="Слой_2" data-name="Слой 2"><g id="Слой_1-2" data-name="Слой 1"><g class="cls-2"><g class="cls-2"><path class="cls-3" d="M14.22,21.63c-1.17,0-2.85-.83-4.17-4.79l-.72-2.17L7.16,14c-4-1.32-4.79-3-4.79-4.16S3.2,6.93,7.16,5.61l8.49-2.83c2.13-.71,3.89-.5,5,.58s1.3,2.86.59,5l-2.83,8.49c-1.32,4-3,4.79-4.17,4.79M7.64,7c-2.78.93-3.77,2-3.77,2.75s1,1.82,3.77,2.75l2.52.84a.73.73,0,0,1,.47.47l.84,2.52c.93,2.78,2,3.77,2.75,3.77s1.82-1,2.75-3.77L19.8,7.87c.51-1.54.42-2.79-.23-3.45s-1.91-.73-3.44-.22Z" transform="translate(-2.37 -2.37)"/><path class="cls-3" d="M10.11,14.4a.74.74,0,0,1-.53-.22.75.75,0,0,1,0-1.06l3.58-3.59a.75.75,0,0,1,1.06,0,.75.75,0,0,1,0,1.06l-3.58,3.59a.73.73,0,0,1-.53.22" transform="translate(-2.37 -2.37)"/></g></g></g></g></svg>