<svg xmlns="http://www.w3.org/2000/svg" xmlns:xlink="http://www.w3.org/1999/xlink" viewBox="0 0 19 19.95"><defs><style>.cls-1{fill:none;}.cls-2{clip-path:url(#clip-path);}.cls-3{opacity:0;}.cls-4{fill:#fff;}</style><clipPath id="clip-path" transform="translate(-2.5 -2.05)"><rect class="cls-1" width="24" height="24"/></clipPath></defs><title>Ресурс 4</title><g id="Слой_2" data-name="Слой 2"><g id="Слой_1-2" data-name="Слой 1"><g class="cls-2"><g class="cls-2"><g class="cls-2"><path class="cls-4" d="M14.85,4v3.8h-1.5V4a.4.4,0,0,0-.55-.37l-7.93,3A1.34,1.34,0,0,0,4,7.84v.67a3.74,3.74,0,0,0-1.5,3V7.84A2.85,2.85,0,0,1,4.34,5.17l7.94-3A2,2,0,0,1,13,2.05,1.91,1.91,0,0,1,14.85,4" transform="translate(-2.5 -2.05)"/><path class="cls-4" d="M21.5,14.5v1A.51.51,0,0,1,21,16H19.56a1.05,1.05,0,0,1-1.06-.91,1,1,0,0,1,1-1.09H21a.51.51,0,0,1,.49.5" transform="translate(-2.5 -2.05)"/><path class="cls-4" d="M19.48,13h1a1,1,0,0,0,1-1v-.44a3.77,3.77,0,0,0-3.76-3.76H6.26A3.77,3.77,0,0,0,2.5,11.51v6.73A3.77,3.77,0,0,0,6.26,22H17.74a3.77,3.77,0,0,0,3.76-3.76v-.19a1,1,0,0,0-1-1h-.87a2.18,2.18,0,0,1-2.13-1.52,2,2,0,0,1,.54-2,2,2,0,0,1,1.44-.6M14,12.75H7a.75.75,0,0,1,0-1.5h7a.75.75,0,0,1,0,1.5" transform="translate(-2.5 -2.05)"/></g></g></g></g></g></svg>