<svg xmlns="http://www.w3.org/2000/svg" xmlns:xlink="http://www.w3.org/1999/xlink" viewBox="0 0 19.97 20"><defs><style>.cls-1{fill:none;}.cls-2{clip-path:url(#clip-path);}.cls-3{fill:#d3d7de;}</style><clipPath id="clip-path" transform="translate(-2 -2)"><rect class="cls-1" width="24" height="24"/></clipPath></defs><title>Ресурс 3</title><g id="Слой_2" data-name="Слой 2"><g id="Слой_1-2" data-name="Слой 1"><g class="cls-2"><g class="cls-2"><path class="cls-3" d="M12.87,15.13,9.6,18.4s-1.41-1.21-1.8-1.59l-.33-.32a28.41,28.41,0,0,1-2.79-3.27,17.83,17.83,0,0,1-2-3.41A8.42,8.42,0,0,1,2,6.54a5.17,5.17,0,0,1,.36-1.93A4.6,4.6,0,0,1,3.51,2.94,2.93,2.93,0,0,1,5.59,2a1.88,1.88,0,0,1,.81.18,1.63,1.63,0,0,1,.67.56L9.39,6a3.42,3.42,0,0,1,.4.7,1.58,1.58,0,0,1,.14.61A1.36,1.36,0,0,1,9.72,8a3.4,3.4,0,0,1-.56.71l-.76.79a.54.54,0,0,0-.16.4.91.91,0,0,0,0,.23l.08.2a8.3,8.3,0,0,0,.93,1.28c.45.52.93,1,1.45,1.58l.31.3c.41.39,1.83,1.61,1.83,1.61" transform="translate(-2 -2)"/><path class="cls-3" d="M22,18.33a2.54,2.54,0,0,1-.15.85,2.44,2.44,0,0,1-.1.24,4.13,4.13,0,0,1-.68,1,4.51,4.51,0,0,1-1.64,1.18h0a5.05,5.05,0,0,1-1.92.37,8.33,8.33,0,0,1-3.26-.73,17.56,17.56,0,0,1-3.44-2c-.39-.29-.78-.58-1.15-.89l3.27-3.27a5.62,5.62,0,0,0,.74.48l.18.08a.69.69,0,0,0,.25,0,.55.55,0,0,0,.41-.17l.76-.75a3.07,3.07,0,0,1,.72-.56,1.33,1.33,0,0,1,.71-.21,1.6,1.6,0,0,1,.61.13,3.87,3.87,0,0,1,.7.39l3.31,2.35a1.52,1.52,0,0,1,.55.64,2.05,2.05,0,0,1,.16.78" transform="translate(-2 -2)"/></g></g></g></g></svg>