<svg xmlns="http://www.w3.org/2000/svg" xmlns:xlink="http://www.w3.org/1999/xlink" viewBox="0 0 20 20"><defs><style>.cls-1{fill:none;}.cls-2{clip-path:url(#clip-path);}.cls-3{fill:#d3d7de;}</style><clipPath id="clip-path" transform="translate(-2 -2)"><rect class="cls-1" width="24" height="24"/></clipPath></defs><title>Ресурс 1</title><g id="Слой_2" data-name="Слой 2"><g id="Слой_1-2" data-name="Слой 1"><g class="cls-2"><g class="cls-2"><path class="cls-3" d="M12,2A10,10,0,1,0,22,12,10,10,0,0,0,12,2m4,10.75H12.75V16a.75.75,0,0,1-1.5,0V12.75H8a.75.75,0,0,1,0-1.5h3.25V8a.75.75,0,0,1,1.5,0v3.25H16a.75.75,0,0,1,0,1.5" transform="translate(-2 -2)"/></g></g></g></g></svg>