<svg xmlns="http://www.w3.org/2000/svg" xmlns:xlink="http://www.w3.org/1999/xlink" viewBox="0 0 21 19.6"><defs><style>.cls-1{fill:none;}.cls-2{clip-path:url(#clip-path);}.cls-3{opacity:0;}.cls-4{fill:#fff;}</style><clipPath id="clip-path" transform="translate(-2 -3.4)"><rect class="cls-1" width="24" height="24"/></clipPath></defs><title>Ресурс 2</title><g id="Слой_2" data-name="Слой 2"><g id="Слой_1-2" data-name="Слой 1"><g class="cls-2"><g class="cls-2"><g class="cls-2"><path class="cls-4" d="M19,15a4,4,0,0,0-4,4,3.92,3.92,0,0,0,.58,2.06,4,4,0,0,0,6.84,0A3.92,3.92,0,0,0,23,19a4,4,0,0,0-4-4m2.07,3.57-2.14,2a.74.74,0,0,1-.5.2.75.75,0,0,1-.53-.22l-1-1A.75.75,0,1,1,18,18.47l.48.48,1.6-1.49a.75.75,0,0,1,1.06.05.76.76,0,0,1,0,1.06" transform="translate(-2 -3.4)"/><path class="cls-4" d="M22,7.55V8a1,1,0,0,1-1,1H3A1,1,0,0,1,2,8V7.54A4.14,4.14,0,0,1,6.14,3.4H17.85A4.15,4.15,0,0,1,22,7.55" transform="translate(-2 -3.4)"/><path class="cls-4" d="M2,11.5v5A4.14,4.14,0,0,0,6.14,20.6H12.4a1,1,0,0,0,1-1.07A5.51,5.51,0,0,1,15.14,15a5.2,5.2,0,0,1,2-1.21,5.52,5.52,0,0,1,3.53,0A1,1,0,0,0,22,12.89V11.5a1,1,0,0,0-1-1H3a1,1,0,0,0-1,1m6,5.75H6a.75.75,0,0,1,0-1.5H8a.75.75,0,0,1,0,1.5" transform="translate(-2 -3.4)"/></g></g></g></g></g></svg>